<mxfile host="app.diagrams.net" modified="2024-03-27T22:55:11.910Z" agent="Mozilla/5.0 (Windows NT 10.0; Win64; x64) AppleWebKit/537.36 (KHTML, like Gecko) Chrome/123.0.0.0 Safari/537.36" etag="V1NKJRNYtRSYdyevFpWJ" version="24.2.0" type="github">
  <diagram name="PÃ¡gina-1" id="MWB7w3SWiaZESMf7lvg7">
    <mxGraphModel dx="1434" dy="738" grid="1" gridSize="10" guides="1" tooltips="1" connect="1" arrows="1" fold="1" page="1" pageScale="1" pageWidth="827" pageHeight="1169" math="0" shadow="0">
      <root>
        <mxCell id="0" />
        <mxCell id="1" parent="0" />
        <mxCell id="nFy15OasrkbAaUaRDqle-3" value="" style="ellipse;html=1;shape=endState;fillColor=#000000;strokeColor=#000000;" vertex="1" parent="1">
          <mxGeometry x="320" y="470" width="30" height="30" as="geometry" />
        </mxCell>
        <mxCell id="nFy15OasrkbAaUaRDqle-4" value="" style="ellipse;html=1;shape=startState;fillColor=#000000;strokeColor=#000000;" vertex="1" parent="1">
          <mxGeometry x="50" y="170" width="30" height="30" as="geometry" />
        </mxCell>
        <mxCell id="nFy15OasrkbAaUaRDqle-5" value="" style="edgeStyle=orthogonalEdgeStyle;html=1;verticalAlign=bottom;endArrow=open;endSize=8;strokeColor=#000000;rounded=0;" edge="1" source="nFy15OasrkbAaUaRDqle-4" parent="1">
          <mxGeometry relative="1" as="geometry">
            <mxPoint x="65" y="260" as="targetPoint" />
          </mxGeometry>
        </mxCell>
        <mxCell id="nFy15OasrkbAaUaRDqle-6" value="Selecionar Cidade origem" style="html=1;whiteSpace=wrap;" vertex="1" parent="1">
          <mxGeometry x="10" y="260" width="110" height="50" as="geometry" />
        </mxCell>
        <mxCell id="nFy15OasrkbAaUaRDqle-9" value="Selecionar cidade Destino" style="html=1;whiteSpace=wrap;" vertex="1" parent="1">
          <mxGeometry x="20" y="370" width="110" height="50" as="geometry" />
        </mxCell>
        <mxCell id="nFy15OasrkbAaUaRDqle-11" style="edgeStyle=orthogonalEdgeStyle;rounded=0;orthogonalLoop=1;jettySize=auto;html=1;entryX=0.403;entryY=-0.015;entryDx=0;entryDy=0;entryPerimeter=0;" edge="1" parent="1" source="nFy15OasrkbAaUaRDqle-6" target="nFy15OasrkbAaUaRDqle-9">
          <mxGeometry relative="1" as="geometry" />
        </mxCell>
        <mxCell id="nFy15OasrkbAaUaRDqle-12" value="Consultar todos voos disponiveis" style="html=1;whiteSpace=wrap;" vertex="1" parent="1">
          <mxGeometry x="210" y="370" width="110" height="50" as="geometry" />
        </mxCell>
        <mxCell id="nFy15OasrkbAaUaRDqle-13" style="edgeStyle=orthogonalEdgeStyle;rounded=0;orthogonalLoop=1;jettySize=auto;html=1;entryX=-0.023;entryY=0.503;entryDx=0;entryDy=0;entryPerimeter=0;" edge="1" parent="1" source="nFy15OasrkbAaUaRDqle-9" target="nFy15OasrkbAaUaRDqle-12">
          <mxGeometry relative="1" as="geometry" />
        </mxCell>
        <mxCell id="nFy15OasrkbAaUaRDqle-21" style="rounded=0;orthogonalLoop=1;jettySize=auto;html=1;entryX=0.5;entryY=0;entryDx=0;entryDy=0;" edge="1" parent="1" source="nFy15OasrkbAaUaRDqle-14" target="nFy15OasrkbAaUaRDqle-16">
          <mxGeometry relative="1" as="geometry" />
        </mxCell>
        <mxCell id="nFy15OasrkbAaUaRDqle-14" value="Selecionar passagem" style="html=1;whiteSpace=wrap;" vertex="1" parent="1">
          <mxGeometry x="359" y="370" width="110" height="50" as="geometry" />
        </mxCell>
        <mxCell id="nFy15OasrkbAaUaRDqle-15" style="edgeStyle=orthogonalEdgeStyle;rounded=0;orthogonalLoop=1;jettySize=auto;html=1;entryX=-0.023;entryY=0.493;entryDx=0;entryDy=0;entryPerimeter=0;" edge="1" parent="1" source="nFy15OasrkbAaUaRDqle-12" target="nFy15OasrkbAaUaRDqle-14">
          <mxGeometry relative="1" as="geometry" />
        </mxCell>
        <mxCell id="nFy15OasrkbAaUaRDqle-19" style="edgeStyle=orthogonalEdgeStyle;rounded=0;orthogonalLoop=1;jettySize=auto;html=1;" edge="1" parent="1" source="nFy15OasrkbAaUaRDqle-16" target="nFy15OasrkbAaUaRDqle-3">
          <mxGeometry relative="1" as="geometry" />
        </mxCell>
        <mxCell id="nFy15OasrkbAaUaRDqle-16" value="Realizar Pagamento" style="html=1;whiteSpace=wrap;" vertex="1" parent="1">
          <mxGeometry x="170" y="460" width="110" height="50" as="geometry" />
        </mxCell>
        <mxCell id="nFy15OasrkbAaUaRDqle-20" value="Cliente" style="swimlane;" vertex="1" parent="1">
          <mxGeometry y="90" width="510" height="440" as="geometry" />
        </mxCell>
      </root>
    </mxGraphModel>
  </diagram>
</mxfile>
